<svg xmlns="http://www.w3.org/2000/svg">
    <defs>
        <symbol id="icon-map" viewBox="0 0 12 16" xmlns="http://www.w3.org/2000/svg">
            <path d="M10.166 8.94c-.524 1.062-1.234 2.12-1.96 3.07A31.5 31.5 0 0 1 6 14.58a31.491 31.491 0 0 1-2.206-2.57c-.726-.95-1.436-2.008-1.96-3.07C1.304 7.867 1 6.862 1 6a5 5 0 1 1 10 0c0 .862-.305 1.867-.834 2.94ZM6 16s6-5.686 6-10A6 6 0 1 0 0 6c0 4.314 6 10 6 10Z"
                  />
            <path d="M6 8a2 2 0 1 1 0-4 2 2 0 0 1 0 4Zm0 1a3 3 0 1 0 0-6 3 3 0 0 0 0 6Z"/>
        </symbol>
        <symbol id="icon-phone" viewBox="0 0 18 18" xmlns="http://www.w3.org/2000/svg">
            <path d="M10.6664 2.66494C10.6851 2.59344 10.7179 2.52639 10.7629 2.46772C10.8078 2.40905 10.864 2.35994 10.9282 2.32327C10.9924 2.2866 11.0632 2.2631 11.1366 2.25416C11.21 2.24522 11.2844 2.25101 11.3555 2.27119C12.404 2.55242 13.3602 3.10459 14.1278 3.87226C14.8955 4.63992 15.4477 5.59605 15.7289 6.64463C15.7491 6.71573 15.7549 6.79015 15.7459 6.86351C15.737 6.93688 15.7135 7.00773 15.6768 7.0719C15.6402 7.13608 15.5911 7.19228 15.5324 7.23724C15.4737 7.28219 15.4067 7.31498 15.3352 7.33369C15.2872 7.34759 15.2375 7.35469 15.1875 7.35478C15.0634 7.35407 14.9429 7.3123 14.845 7.23599C14.7471 7.15968 14.6771 7.05312 14.6461 6.93291C14.4122 6.0767 13.959 5.29628 13.3314 4.66867C12.7038 4.04105 11.9234 3.58792 11.0672 3.354C10.995 3.33606 10.9272 3.30383 10.8678 3.25921C10.8083 3.21458 10.7585 3.15848 10.7211 3.09423C10.6837 3.02997 10.6596 2.95887 10.6502 2.88513C10.6408 2.81139 10.6463 2.73651 10.6664 2.66494ZM10.4836 5.52666C10.9595 5.65694 11.3933 5.90895 11.7422 6.25786C12.0911 6.60678 12.3432 7.04057 12.4734 7.5165C12.5034 7.63731 12.573 7.74457 12.6712 7.82107C12.7694 7.89757 12.8904 7.93888 13.0148 7.93838C13.0625 7.93884 13.11 7.93172 13.1555 7.91728C13.2276 7.89935 13.2954 7.86711 13.3549 7.82249C13.4143 7.77787 13.4642 7.72176 13.5016 7.65751C13.539 7.59325 13.563 7.52215 13.5724 7.44841C13.5818 7.37467 13.5763 7.2998 13.5563 7.22822C13.3787 6.55991 13.0276 5.9504 12.5387 5.46143C12.0497 4.97247 11.4402 4.62142 10.7719 4.44385C10.6985 4.41712 10.6204 4.40596 10.5424 4.41108C10.4645 4.4162 10.3885 4.43749 10.3193 4.47359C10.25 4.5097 10.1891 4.55982 10.1402 4.62078C10.0914 4.68174 10.0559 4.75219 10.0358 4.82765C10.0157 4.90311 10.0115 4.98193 10.0236 5.05909C10.0356 5.13625 10.0636 5.21005 10.1057 5.27581C10.1478 5.34156 10.2032 5.39782 10.2682 5.44101C10.3333 5.4842 10.4066 5.51337 10.4836 5.52666ZM16.2844 12.3118C16.16 13.2613 15.695 14.1334 14.976 14.7658C14.2569 15.3982 13.3326 15.748 12.375 15.7501C6.79219 15.7501 2.25 11.2079 2.25 5.6251C2.25211 4.66748 2.6019 3.74321 3.23432 3.02414C3.86675 2.30506 4.73878 1.84011 5.68828 1.71572C5.93033 1.68888 6.17463 1.73985 6.38577 1.86122C6.5969 1.98258 6.76388 2.16805 6.8625 2.39072L8.27578 5.68838C8.34909 5.85955 8.37848 6.04632 8.36129 6.23173C8.3441 6.41714 8.28087 6.59532 8.17734 6.7501L7.01016 8.53603C7.53868 9.60865 8.40955 10.4746 9.48516 10.997L11.25 9.82275C11.4046 9.71853 11.5832 9.65544 11.769 9.63945C11.9548 9.62346 12.1416 9.65508 12.3117 9.73135L15.6094 11.1376C15.832 11.2362 16.0175 11.4032 16.1389 11.6143C16.2603 11.8255 16.3112 12.0698 16.2844 12.3118ZM15.1664 12.1712L11.8688 10.7649L10.1109 11.9392C9.9492 12.0461 9.76257 12.1094 9.56915 12.1229C9.37574 12.1365 9.1821 12.0998 9.00703 12.0165C7.69707 11.3828 6.63745 10.3282 5.99766 9.02119C5.9133 8.84671 5.87545 8.65341 5.88777 8.46C5.90009 8.26659 5.96216 8.07965 6.06797 7.91728L7.24219 6.13135L5.82891 2.83369C5.15036 2.92092 4.52686 3.25248 4.07517 3.7663C3.62347 4.28012 3.37455 4.94096 3.375 5.6251C3.37686 8.01147 4.32567 10.2996 6.0131 11.987C7.70052 13.6744 9.98862 14.6232 12.375 14.6251C13.0591 14.6255 13.72 14.3766 14.2338 13.9249C14.7476 13.4732 15.0792 12.8497 15.1664 12.1712Z"
              />
        </symbol>
        <symbol id="icon-arrow-down" viewBox="0 0 9 8" xmlns="http://www.w3.org/2000/svg">
            <path d="M8.39709 0.897114L4.49998 7.64711L0.602866 0.897114L8.39709 0.897114Z"/>
        </symbol>
        <symbol id="icon-arrow-decor" viewBox="0 0 14 24" xmlns="http://www.w3.org/2000/svg">
            <path d="M0.518218 0.518218C0.186403 0.850132 0 1.30024 0 1.76957C0 2.2389 0.186403 2.68901 0.518218 3.02093L9.27947 11.7822L0.518218 20.5434C0.195807 20.8773 0.0174052 21.3243 0.0214379 21.7884C0.0254706 22.2525 0.211615 22.6964 0.539778 23.0246C0.867941 23.3528 1.31187 23.5389 1.77594 23.5429C2.24002 23.547 2.68711 23.3686 3.02093 23.0461L13.0335 13.0335C13.3654 12.7016 13.5518 12.2515 13.5518 11.7822C13.5518 11.3129 13.3654 10.8627 13.0335 10.5308L3.02093 0.518218C2.68901 0.186403 2.2389 0 1.76957 0C1.30025 0 0.850133 0.186403 0.518218 0.518218Z"/>
        </symbol>
        <symbol id="icon-play" viewBox="0 0 152 100" xmlns="http://www.w3.org/2000/svg">
            <path d="M106.884 47.647c0 17.21-13.951 31.161-31.161 31.161s-31.161-13.951-31.161-31.161c0-17.21 13.951-31.161 31.161-31.161s31.161 13.951 31.161 31.161zM75.723 84.644c20.433 0 36.997-16.564 36.997-36.997s-16.564-36.997-36.997-36.997c-20.433 0-36.997 16.564-36.997 36.997s16.564 36.997 36.997 36.997zM75.723 80.475c-6.656 0-12.849-1.981-18.022-5.385 5.173 3.404 11.366 5.385 18.022 5.385 18.13 0 32.828-14.698 32.828-32.828 0-6.799-2.067-13.115-5.607-18.355 3.54 5.239 5.607 11.556 5.607 18.355 0 18.13-14.698 32.828-32.828 32.828zM97.368 19.722c-5.98-4.641-13.489-7.404-21.645-7.404-19.512 0-35.329 15.818-35.329 35.329 0 9.756 3.954 18.588 10.348 24.981-6.393-6.393-10.348-15.226-10.348-24.982 0-19.512 15.818-35.329 35.329-35.329 8.155 0 15.665 2.763 21.645 7.405z"/>
            <path d="M89.168 47.5l-20.343 11.745v-23.49l20.343 11.745z"/>
        </symbol>
    </defs>
</svg>