<svg width="123" height="48" viewBox="0 0 123 48" fill="none" xmlns="http://www.w3.org/2000/svg"><path d="M13.637 47.648c-6.841 0-11.322-2.832-13.443-8.497l8.822-4.82c.4 1.406 1.02 2.41 1.86 3.012.84.603 2.04.904 3.601.904 3.76 0 5.942-1.667 6.542-5.001l5.04-28.625h9.602l-5.04 28.625c-.84 4.82-2.741 8.426-5.702 10.817-2.96 2.39-6.721 3.585-11.282 3.585ZM51.677 4.622h5.698l-3.343 19.074h-5.699l.304-1.793c-1.393 1.552-3.254 2.327-5.584 2.327-2.052 0-3.666-.706-4.844-2.117-1.178-1.411-1.552-3.338-1.121-5.78l2.051-11.711h5.7l-1.9 10.872c-.203 1.17-.044 2.041.474 2.613.52.573 1.273.859 2.261.859 1.013 0 1.894-.306 2.64-.916.748-.61 1.248-1.539 1.501-2.785l1.862-10.643ZM84.3 11.12l-1.178 6.752c-.153.788.063 1.284.645 1.488.583.204 1.584.254 3.002.153l-.912 5.188c-3.394.381-5.768.012-7.123-1.106-1.356-1.12-1.792-3.027-1.311-5.723L78.6 11.12h-3.04l.988-5.494h3.001l.647-3.624L86.198.285l-.949 5.341H89.2l-.987 5.494h-3.914ZM76.417 27.94h5.7l-3.344 19.076h-5.699l.304-1.793c-1.393 1.552-3.255 2.327-5.585 2.327-2.052 0-3.666-.705-4.844-2.117-1.178-1.411-1.551-3.338-1.12-5.78l2.05-11.712h5.7l-1.9 10.873c-.202 1.17-.044 2.04.475 2.613.52.572 1.273.858 2.26.858 1.014 0 1.894-.305 2.64-.915.748-.61 1.248-1.539 1.502-2.785l1.861-10.644ZM93.19 33.473l-1.178 6.753c-.151.788.064 1.284.646 1.488.583.203 1.584.254 3.001.152l-.911 5.188c-3.394.382-5.769.013-7.124-1.106-1.355-1.119-1.792-3.026-1.31-5.722l1.177-6.753h-3.039l.988-5.494h3.001l.646-3.624 6.003-1.717-.95 5.34h3.951l-.987 5.495H93.19ZM107.666 47.855c-2.229 0-4.085-.553-5.566-1.66-1.482-1.105-2.47-2.466-2.964-4.081-.493-1.615-.563-3.313-.209-5.093.532-2.62 1.811-4.826 3.838-6.62 2.026-1.793 4.546-2.69 7.56-2.69 3.039 0 5.331 1.1 6.877 3.3 1.545 2.2 2.077 4.661 1.596 7.383-.456 2.569-1.736 4.788-3.838 6.657-2.102 1.87-4.533 2.804-7.294 2.804Zm-2.432-6.81c.633.827 1.571 1.24 2.812 1.24 1.241 0 2.343-.413 3.305-1.24.962-.826 1.558-1.913 1.785-3.262.254-1.347.045-2.435-.626-3.261-.672-.827-1.628-1.24-2.869-1.24a4.717 4.717 0 0 0-3.248 1.24c-.924.826-1.514 1.914-1.767 3.261-.228 1.349-.025 2.436.608 3.262ZM45.419 47.855c-2.229 0-4.085-.553-5.566-1.66-1.482-1.106-2.47-2.466-2.964-4.081-.493-1.615-.563-3.313-.208-5.093.532-2.62 1.81-4.826 3.837-6.62 2.026-1.792 4.546-2.69 7.56-2.69 2.958 0 5.208 1.043 6.751 3.127.451-2.576.47-2.69.499-2.859h5.699l-3.343 19.075h-5.7l.286-1.627c-1.999 1.619-4.282 2.428-6.851 2.428Zm-2.432-6.81c.634.827 1.57 1.24 2.812 1.24 1.241 0 2.343-.413 3.305-1.24.963-.826 1.557-1.913 1.786-3.262.253-1.347.044-2.434-.627-3.261-.672-.827-1.627-1.24-2.869-1.24a4.719 4.719 0 0 0-3.248 1.24c-.924.827-1.514 1.914-1.767 3.261-.227 1.349-.025 2.436.608 3.262ZM64.612 24.575c-3.926 0-6.598-1.564-8.016-4.692l5.128-2.594c.557 1.45 1.685 2.174 3.382 2.174 1.291 0 1.988-.33 2.089-.992.076-.407-.202-.75-.835-1.03-.634-.28-1.406-.547-2.318-.8a17.43 17.43 0 0 1-2.679-.993c-.873-.406-1.563-1.074-2.07-2.002-.507-.929-.633-2.08-.38-3.453.228-1.297.773-2.39 1.634-3.281.86-.89 1.836-1.526 2.925-1.908a10.274 10.274 0 0 1 3.42-.572c1.67 0 3.146.363 4.425 1.088 1.28.725 2.223 1.723 2.83 2.994L69.02 11.07c-.456-1.119-1.28-1.678-2.47-1.678-1.14 0-1.785.394-1.937 1.182-.102.51.158.903.779 1.183.62.28 1.386.528 2.298.744.912.216 1.811.509 2.697.877.887.37 1.583 1.018 2.09 1.946.507.928.633 2.117.38 3.567-.355 1.933-1.28 3.364-2.773 4.292-1.495.928-3.318 1.392-5.471 1.392Z" fill="#fff"/><path d="m110.134 22.935.387-.022c4.289-.196 7.619 1.24 9.985 4.302 1.144 1.482 1.942 3.078 2.392 4.782.125.476.224.958.295 1.45l.002.034-3.39.155a9.857 9.857 0 0 0-.17-.774c-.334-1.265-.934-2.459-1.795-3.575-1.648-2.133-4.037-3.129-7.166-2.986l-.387.022-.153-3.388Z" fill="#EF7F1A"/><path fill-rule="evenodd" clip-rule="evenodd" d="m21.887 9.823-9.43-.16.887-5.041 9.43.159-.887 5.042Z" fill="#EF7F1A"/></svg>