<svg width="47" height="48" viewBox="0 0 47 48" fill="none" xmlns="http://www.w3.org/2000/svg"><path d="M19.539 0h.932c3.581.092 7.137 1.138 10.167 3.054a20.184 20.184 0 0 1 7.483 8.408 19.89 19.89 0 0 1 1.84 10.337 19.98 19.98 0 0 1-2.147 7.386c-.505.97-1.073 1.904-1.626 2.846 3.442 3.818 6.916 7.609 10.37 11.417.393.419.552 1.048.362 1.598-.189.592-.749.928-1.176 1.335-.483.393-.929 1.015-1.636.907-.679.007-1.17-.5-1.568-.984-3.242-3.558-6.484-7.116-9.728-10.673-1.291.793-2.535 1.672-3.902 2.336a19.98 19.98 0 0 1-8.175 2.068 20.027 20.027 0 0 1-10.201-2.37c-3.567-1.93-6.538-4.954-8.372-8.574C.822 26.492.126 23.587 0 20.672v-1.127c.074-2.27.492-4.534 1.31-6.656 1.643-4.351 4.873-8.066 8.926-10.34C13.066.946 16.294.092 19.539 0Zm-1.584 2.826a16.738 16.738 0 0 0-7.023 2.522 17.014 17.014 0 0 0-6.724 8.234c-1.138 2.931-1.4 6.186-.805 9.27a16.795 16.795 0 0 0 4.219 8.268 16.82 16.82 0 0 0 8.38 4.92c3.33.807 6.91.58 10.1-.675a17.009 17.009 0 0 0 7.682-5.996c2-2.804 3.119-6.233 3.116-9.68a16.72 16.72 0 0 0-2.57-9.06c-1.919-3.05-4.824-5.48-8.19-6.782a17.012 17.012 0 0 0-8.185-1.02Z" fill="#fff"/><path d="M12.885 6.259c.284-.14.564-.35.896-.34 1.651.003 3.303.002 4.954.001.504.004 1.033.03 1.475.297.918.456 1.464 1.367 1.985 2.207.669 1.263 1.316 2.538 1.976 3.806.242-.255.497-.564.884-.564 1.295-.02 2.592-.002 3.888-.008.519-.01 1.082.194 1.36.657.34.493.225 1.119.245 1.682-.014.498.053 1.012-.104 1.495a2.04 2.04 0 0 1-1.389 1.291c-.735.207-1.474.402-2.208.616.3.623.67 1.217.92 1.861.086 2.07.08 4.145.133 6.217.035.637-.177 1.25-.487 1.797-.04.974.012 1.952-.023 2.927-.059 1.028-.987 1.946-2.028 1.931-1.929-.002-3.856 0-5.784 0-.972-.011-1.828-.84-1.945-1.792-.05-.602-.01-1.21-.023-1.814-3.278.001-6.556-.002-9.833.002a15.855 15.855 0 0 1-1.097-1.736c6.09-.009 12.18.005 18.27-.007.642.015 1.234-.555 1.183-1.207-.034-1.966-.044-3.936-.099-5.901-.264-.603-.606-1.17-.891-1.764-.132-.307-.383-.537-.533-.833-.35-.678-.706-1.352-1.058-2.028-.89.5-1.778 1.008-2.67 1.505-.298.174-.653.12-.982.131-4.92.023-9.84.052-14.761.075a14 14 0 0 1 .455-1.767c4.804-.009 9.606-.034 14.408-.049.12.007.23-.022.332-.086.828-.474 1.658-.941 2.488-1.413-.638-1.242-1.282-2.482-1.921-3.723-.345-.67-.713-1.365-1.309-1.846-.205-.187-.49-.225-.755-.222-2.703.004-5.405-.002-8.108.003.67-.539 1.424-.955 2.156-1.401Zm12.63 7.17c-.204.092-.325.313-.485.466.322.633.652 1.263.978 1.895.916-.248 1.826-.515 2.746-.748.097-.534.02-1.081.043-1.62-1.094.005-2.189-.014-3.283.008Zm-6.136 15.097c.009.529-.02 1.057.01 1.583.01.197.212.304.392.284 1.83.002 3.66.005 5.49-.002a.354.354 0 0 0 .38-.38c.012-.509-.003-1.018.002-1.527-.2.022-.4.044-.603.044-1.89-.004-3.78 0-5.671-.002Z" fill="#fff"/><path d="M23.916 19.072c.52-.354 1.34.076 1.299.718.069.6-.543.89-.902 1.252-.355.27-.636.7-1.098.79-1.138.049-2.28.052-3.418.09a.907.907 0 0 1-.92-.756c-.09-.487.319-1.004.82-1.005 1.008-.032 2.016-.05 3.024-.055.408-.333.766-.727 1.195-1.034ZM10.678 20.478c.748-.157 1.706.196 1.895 1.004.117.633-.417 1.184-.996 1.332-.587.172-1.267.053-1.73-.353-.312-.279-.471-.75-.307-1.15.187-.464.66-.748 1.138-.833Z" fill="#fff"/></svg>