<svg version="1.1" xmlns="http://www.w3.org/2000/svg" width="152" height="152" viewBox="0 0 152 100">
    <path d="M106.884 47.647c0 17.21-13.951 31.161-31.161 31.161s-31.161-13.951-31.161-31.161c0-17.21 13.951-31.161 31.161-31.161s31.161 13.951 31.161 31.161zM75.723 84.644c20.433 0 36.997-16.564 36.997-36.997s-16.564-36.997-36.997-36.997c-20.433 0-36.997 16.564-36.997 36.997s16.564 36.997 36.997 36.997zM75.723 80.475c-6.656 0-12.849-1.981-18.022-5.385 5.173 3.404 11.366 5.385 18.022 5.385 18.13 0 32.828-14.698 32.828-32.828 0-6.799-2.067-13.115-5.607-18.355 3.54 5.239 5.607 11.556 5.607 18.355 0 18.13-14.698 32.828-32.828 32.828zM97.368 19.722c-5.98-4.641-13.489-7.404-21.645-7.404-19.512 0-35.329 15.818-35.329 35.329 0 9.756 3.954 18.588 10.348 24.981-6.393-6.393-10.348-15.226-10.348-24.982 0-19.512 15.818-35.329 35.329-35.329 8.155 0 15.665 2.763 21.645 7.405z"/>
    <path d="M89.168 47.5l-20.343 11.745v-23.49l20.343 11.745z"/>
</svg>
