<svg aria-hidden="true" style="position: absolute; width: 0; height: 0; overflow: hidden;" version="1.1" xmlns="http://www.w3.org/2000/svg" xmlns:xlink="http://www.w3.org/1999/xlink">
<defs>
<symbol id="icon-play" viewBox="0 0 32 32">
<path fill="#ef7f1a" style="fill: var(--color1, #ef7f1a)" d="M22.502 10.031c0 3.623-2.937 6.56-6.56 6.56s-6.56-2.937-6.56-6.56c0-3.623 2.937-6.56 6.56-6.56s6.56 2.937 6.56 6.56zM15.942 17.82c4.302 0 7.789-3.487 7.789-7.789s-3.487-7.789-7.789-7.789c-4.302 0-7.789 3.487-7.789 7.789s3.487 7.789 7.789 7.789zM15.942 16.942c-1.401 0-2.705-0.417-3.794-1.134 1.089 0.717 2.393 1.134 3.794 1.134 3.817 0 6.911-3.094 6.911-6.911 0-1.431-0.435-2.761-1.18-3.864 0.745 1.103 1.18 2.433 1.18 3.864 0 3.817-3.094 6.911-6.911 6.911zM20.499 4.152c-1.259-0.977-2.84-1.559-4.557-1.559-4.108 0-7.438 3.33-7.438 7.438 0 2.054 0.832 3.913 2.178 5.259-1.346-1.346-2.178-3.205-2.178-5.259 0-4.108 3.33-7.438 7.438-7.438 1.717 0 3.298 0.582 4.557 1.559z"></path>
<path fill="#ef7f1a" style="fill: var(--color1, #ef7f1a)" d="M18.772 10l-4.283 2.473v-4.945l4.283 2.473z"></path>
</symbol>
</defs>
</svg>
