<svg width="75" height="35" viewBox="0 0 75 35" fill="none" xmlns="http://www.w3.org/2000/svg"><path d="M49.809 4.186c1.51-.653 3.185-.629 4.796-.763 5.039-.181 10.08.102 15.123.159 1.044-.068 2.15.582 2.438 1.618.354 1.16.578 2.355.818 3.545.345 1.867.002 3.852.78 5.633.015 1.025-.249 2.125-.818 2.988-1.055.723-2.45.567-3.663.777.026-2.748-2.477-5.193-5.24-4.993-2.85.054-5.227 2.914-4.712 5.732-5.255.084-10.513-.005-15.768.044.106-1.632-.364-3.391-1.653-4.478-1.756-1.646-4.745-1.751-6.55-.127-1.378 1.087-1.948 2.9-1.81 4.607-1.155-.037-2.31.033-3.461-.04-.429-.022-.844-.289-.977-.707-.313-.893-.66-1.794-.741-2.743.99-1.066.677-2.717 1.588-3.83.545-.532 1.303-.762 2.005-1.004 3.488-1.096 7.157-1.363 10.744-1.945 2.326-1.543 4.54-3.313 7.1-4.473Zm1.105.906c-1.71.615-3.185 1.724-4.564 2.884-.42.378-.941.75-.985 1.365 3.337-.154 6.669-.467 10.009-.626.035-1.397.234-2.784.388-4.17-1.621.089-3.283.043-4.848.547ZM30.264 14.3a7.166 7.166 0 0 0 3.178-.868c.64-.51.777-1.395 1.044-2.123-1.767.194-3.946.963-4.222 2.991Z" fill="#fff"/><path d="M37.098 14.388c2.114-.903 4.815.437 5.343 2.682.607 2.004-.63 4.327-2.651 4.91-.907.366-1.864.067-2.8.037-.837-.68-1.821-1.3-2.172-2.393-.83-1.988.216-4.526 2.28-5.236Zm.812 1.692c-1.576.429-2.042 2.708-.74 3.698 1.11 1.071 3.143.397 3.467-1.082.499-1.559-1.184-3.164-2.727-2.616ZM63.089 14.283c2.479-.86 5.34 1.26 5.211 3.882.073 2.406-2.392 4.497-4.756 3.925-2.055-.302-3.58-2.412-3.277-4.46.178-1.545 1.343-2.891 2.822-3.347Zm.477 1.824c-1.419.418-1.937 2.414-.901 3.466.955 1.187 3.035.842 3.585-.567.826-1.597-1.009-3.604-2.684-2.9ZM3.487 1.781C4.302.19 6.341.131 7.897.034c5.534-.043 11.067.033 16.601.01.731-.053 1.117.804 1.08 1.431.055 7.35-.017 14.702.033 22.056-.886.32-1.776.634-2.659.958-.068 2.259.072 4.528-.086 6.78-.104.634-.771.767-1.265.97.235-1.294.53-2.649.13-3.946-.71-2.713-3.47-4.705-6.276-4.47-2.723.169-5.133 2.37-5.54 5.068-.267 1.078.057 2.158.288 3.207-2.569-.069-5.141.086-7.703-.069C.836 31.564.094 29.695 0 28.11c.623-.194 1.25-.374 1.877-.554-.01-1.117-.022-2.23-.018-3.344-.59-.018-1.182-.036-1.773-.057.087-2.165-.118-4.345.109-6.503.868-.421 1.804-.692 2.709-1.023.263-2.915.612-5.818 1.102-8.704-.937-.04-1.87-.061-2.803-.061.48-2.115 1.193-4.201 2.284-6.082Zm13.449 6.154c-.126 1.761-.025 3.527-.004 5.292 1.539.148 3.088.108 4.63.007.036-1.855.054-3.714-.025-5.57-1.43-.068-2.868-.147-4.295-.018-.075.073-.23.217-.306.289ZM5.642 7.89c-.54 2.739-1.027 5.53-.807 8.333 2.6-.45 5.224-.785 7.843-1.142.144-2.392.26-4.788.27-7.183-2.436-.036-4.87-.022-7.306-.008Z" fill="#fff"/><path d="M14.216 25.202c2.807-1.117 6.24.962 6.571 3.952.515 2.897-2.003 5.786-4.939 5.682-2.871.068-5.321-2.731-4.892-5.563.227-1.82 1.516-3.48 3.26-4.07Zm.31 2.04c-1.95.9-2.144 3.901-.335 5.054 1.891 1.542 5.022-.335 4.63-2.724-.123-2.006-2.544-3.282-4.295-2.33ZM52.505 25.17c2.637-1.027 5.89.724 6.456 3.502.8 2.745-1.333 5.793-4.154 6.088-2.486.375-5.065-1.423-5.501-3.909-.53-2.36.904-4.917 3.199-5.681Zm.594 1.91c-2.057.713-2.6 3.768-.807 5.065 1.643 1.505 4.572.32 4.781-1.867.432-2.129-1.981-4.053-3.974-3.199ZM64.044 25.101c2.919-1.005 6.391 1.373 6.373 4.493.242 2.576-1.887 5.022-4.46 5.188-2.756.37-5.465-2.083-5.386-4.853-.133-2.165 1.43-4.212 3.473-4.828Zm.23 2.057c-2.294.89-2.261 4.475.004 5.383 2.032 1.102 4.727-1.067 4.122-3.279-.288-1.83-2.475-2.929-4.125-2.104ZM29.502 26.153c1.283.026 2.569.026 3.851.015a459.6 459.6 0 0 0-.007 5.894c-1.272.01-2.543.021-3.815.01-.036-1.97-.004-3.944-.029-5.919ZM34.315 26.23c2.79.025 5.587.025 8.377.014a212.45 212.45 0 0 0-.016 5.915c-2.766.01-5.532.022-8.298.01-.078-1.977-.008-3.958-.063-5.94ZM24.4 26.247c1.345-.115 2.696-.097 4.043-.097-.01 1.974-.043 3.948.021 5.919-1.372 0-2.755.068-4.114-.166.008-1.888-.05-3.772.05-5.656ZM43.502 26.16c1.254.022 2.518-.068 3.768.087.08.108.242.324.321.432.144 1.711.007 3.437.076 5.152-1.351.378-2.767.22-4.15.263-.019-1.978.003-3.956-.015-5.934ZM71.156 27.054c.425.004.85.004 1.282.004.818.53 1.657 1.03 2.497 1.534.004.696.01 1.387.025 2.083-1.073.003-2.143 0-3.21.021.112-1.25-.137-2.482-.594-3.642ZM28.371 23.528h46.474v.27H28.371z" fill="#fff"/></svg>