<svg width="14" height="24" viewBox="0 0 14 24" fill="none" xmlns="http://www.w3.org/2000/svg">
<path d="M13.0335 23.0462C13.3654 22.7143 13.5518 22.2642 13.5518 21.7949C13.5518 21.3256 13.3654 20.8754 13.0335 20.5435L4.27228 11.7823L13.0335 3.02102C13.356 2.6872 13.5344 2.24011 13.5303 1.77603C13.5263 1.31195 13.3401 0.868029 13.012 0.539865C12.6838 0.211702 12.2399 0.0255604 11.7758 0.0215282C11.3117 0.0174961 10.8646 0.195896 10.5308 0.518307L0.518219 10.5309C0.186404 10.8628 9.53674e-07 11.3129 9.53674e-07 11.7823C9.53674e-07 12.2516 0.186404 12.7017 0.518219 13.0336L10.5308 23.0462C10.8627 23.3781 11.3129 23.5645 11.7822 23.5645C12.2515 23.5645 12.7016 23.3781 13.0335 23.0462Z" fill="white"/>
</svg>
