<svg width="14" height="24" viewBox="0 0 14 24" fill="none" xmlns="http://www.w3.org/2000/svg">
<path d="M0.518218 0.518218C0.186403 0.850132 0 1.30024 0 1.76957C0 2.2389 0.186403 2.68901 0.518218 3.02093L9.27947 11.7822L0.518218 20.5434C0.195807 20.8773 0.0174052 21.3243 0.0214379 21.7884C0.0254706 22.2525 0.211615 22.6964 0.539778 23.0246C0.867941 23.3528 1.31187 23.5389 1.77594 23.5429C2.24002 23.547 2.68711 23.3686 3.02093 23.0461L13.0335 13.0335C13.3654 12.7016 13.5518 12.2515 13.5518 11.7822C13.5518 11.3129 13.3654 10.8627 13.0335 10.5308L3.02093 0.518218C2.68901 0.186403 2.2389 0 1.76957 0C1.30025 0 0.850133 0.186403 0.518218 0.518218Z" fill="white"/>
</svg>
