<svg width="26" height="27" viewBox="0 0 26 27" fill="none" xmlns="http://www.w3.org/2000/svg">
    <g clip-path="url(#a)">
        <path d="M13 0C9.553 0 6.244 1.423 3.809 3.954 1.37 6.486 0 9.92 0 13.5c0 3.579 1.371 7.015 3.809 9.546C6.244 25.576 9.553 27 13 27c3.447 0 6.756-1.423 9.191-3.954C24.63 20.516 26 17.079 26 13.5c0-3.579-1.371-7.015-3.809-9.546C19.756 1.424 16.447 0 13 0Z"
              fill="url(#b)"/>
        <path d="M5.885 13.357c3.79-1.714 6.317-2.845 7.58-3.39 3.612-1.56 4.361-1.831 4.85-1.84.108-.002.348.026.505.157.13.11.166.26.184.366.017.105.039.344.02.53-.194 2.136-1.041 7.316-1.472 9.707-.18 1.011-.54 1.35-.888 1.384-.755.072-1.328-.518-2.06-1.016-1.143-.779-1.789-1.264-2.9-2.024-1.284-.878-.45-1.36.28-2.15.191-.206 3.518-3.348 3.582-3.633.008-.036.016-.169-.062-.239-.075-.07-.186-.046-.268-.027-.115.027-1.942 1.282-5.484 3.764-.518.37-.987.55-1.41.54-.463-.01-1.357-.272-2.02-.496-.813-.275-1.461-.42-1.404-.887.028-.243.351-.492.967-.746Z"
              fill="#fff"/>
    </g>
    <defs>
        <linearGradient id="b" x1="13" y1="0" x2="13" y2="27" gradientUnits="userSpaceOnUse">
            <stop stop-color="#2AABEE"/>
            <stop offset="1" stop-color="#229ED9"/>
        </linearGradient>
        <clipPath id="a">
            <path fill="#fff" d="M0 0h26v27H0z"/>
        </clipPath>
    </defs>
</svg>