<svg width="27" height="29" viewBox="0 0 27 29" fill="none" xmlns="http://www.w3.org/2000/svg">
    <g clip-path="url(#a)">
        <path d="M.576 14.326c0 2.437.597 4.816 1.733 6.913L.468 28.404l6.88-1.922a12.345 12.345 0 0 0 6.201 1.682h.006c7.152 0 12.974-6.203 12.977-13.827.002-3.694-1.347-7.168-3.797-9.781C20.285 1.942 17.026.502 13.555.5 6.4.5.578 6.703.575 14.326"
              fill="url(#b)"/>
        <path d="M.113 14.322c0 2.524.618 4.988 1.794 7.16L0 28.905l7.127-1.991a12.788 12.788 0 0 0 6.424 1.743h.005c7.41 0 13.44-6.426 13.444-14.323.001-3.827-1.396-7.425-3.934-10.133-2.538-2.707-5.913-4.198-9.51-4.2C6.146 0 .117 6.425.114 14.322Zm4.244 6.786-.266-.45a12.455 12.455 0 0 1-1.708-6.335C2.385 7.759 7.397 2.419 13.56 2.419c2.985.001 5.79 1.241 7.9 3.491 2.11 2.25 3.27 5.241 3.27 8.422-.004 6.564-5.016 11.905-11.175 11.905h-.004a10.643 10.643 0 0 1-5.687-1.66l-.408-.258-4.23 1.182 1.13-4.393Z"
              fill="#E7E7E7"/>
        <path d="M10.197 8.334c-.252-.596-.517-.608-.756-.618-.196-.01-.42-.008-.644-.008-.224 0-.588.09-.896.447-.308.359-1.175 1.225-1.175 2.986 0 1.761 1.203 3.463 1.371 3.702.168.24 2.324 3.97 5.738 5.404 2.838 1.192 3.415.955 4.03.895.617-.06 1.988-.865 2.268-1.701.28-.836.28-1.552.196-1.702-.084-.15-.308-.239-.644-.418s-1.987-1.045-2.295-1.165c-.308-.119-.532-.178-.756.18-.224.358-.867 1.164-1.063 1.403-.196.24-.392.269-.728.09-.336-.18-1.418-.557-2.701-1.777-.999-.949-1.673-2.12-1.869-2.479-.196-.358-.021-.552.147-.73.151-.16.336-.418.505-.627.167-.21.223-.358.335-.597.112-.24.056-.448-.028-.627-.084-.18-.737-1.95-1.035-2.657"
              fill="#fff"/>
    </g>
    <defs>
        <linearGradient id="b" x1="13.5" y1="28.404" x2="13.5" y2=".5" gradientUnits="userSpaceOnUse">
            <stop stop-color="#1FAF38"/>
            <stop offset="1" stop-color="#60D669"/>
        </linearGradient>
        <clipPath id="a">
            <path fill="#fff" d="M0 0h27v29H0z"/>
        </clipPath>
    </defs>
</svg>